HIERARCHY
ROOT Hips
{
  OFFSET 53.4076 91.5813 4.76195
  CHANNELS 6 Xposition Yposition Zposition Zrotation Xrotation Yrotation
  JOINT spine
  {
    OFFSET 0 6.84637 0.3937
    CHANNELS 3 Zrotation Xrotation Yrotation
    JOINT spine1
    {
      OFFSET 0 9.49621 0
      CHANNELS 3 Zrotation Xrotation Yrotation
      JOINT spine2
      {
        OFFSET 0 9.09909 0
        CHANNELS 3 Zrotation Xrotation Yrotation
        JOINT Neck
        {
          OFFSET 0 23.3612 1.11378
          CHANNELS 3 Zrotation Xrotation Yrotation
          JOINT Head
          {
            OFFSET 0 7.05802 0
            CHANNELS 3 Zrotation Xrotation Yrotation
            End Site
            {
              OFFSET 0 17.0844 -5.63419
            }
          }
        }
        JOINT RightShoulder
        {
          OFFSET -3.83136 9.82631 -0.533491
          CHANNELS 3 Zrotation Xrotation Yrotation
          JOINT RightArm
          {
            OFFSET 0 12.8881 0
            CHANNELS 3 Zrotation Xrotation Yrotation
            JOINT RightArmRoll
            {
              OFFSET 0 6.50617 0
              CHANNELS 3 Zrotation Xrotation Yrotation
              JOINT RightForeArm
              {
                OFFSET 0 18.9501 0
                CHANNELS 3 Zrotation Xrotation Yrotation
                JOINT RightForeArmRoll
                {
                  OFFSET 0 7.30093 0
                  CHANNELS 3 Zrotation Xrotation Yrotation
                  JOINT RightHand
                  {
                    OFFSET 0 14.6514 0
                    CHANNELS 3 Zrotation Xrotation Yrotation
                    End Site
                    {
                      OFFSET 0 0 0
                    }
                  }
                }
              }
            }
          }
        }
        JOINT LeftShoulder
        {
          OFFSET 3.83136 9.82631 -0.533491
          CHANNELS 3 Zrotation Xrotation Yrotation
          JOINT LeftArm
          {
            OFFSET 0 12.8881 0
            CHANNELS 3 Zrotation Xrotation Yrotation
            JOINT LeftArmRoll
            {
              OFFSET 0 6.50617 0
              CHANNELS 3 Zrotation Xrotation Yrotation
              JOINT LeftForeArm
              {
                OFFSET 0 18.9501 0
                CHANNELS 3 Zrotation Xrotation Yrotation
                JOINT LeftForeArmRoll
                {
                  OFFSET 0 7.30093 0
                  CHANNELS 3 Zrotation Xrotation Yrotation
                  JOINT LeftHand
                  {
                    OFFSET 0 14.6514 0
                    CHANNELS 3 Zrotation Xrotation Yrotation
                    End Site
                    {
                      OFFSET 0 0 0
                    }
                  }
                }
              }
            }
          }
        }
      }
    }
  }
  JOINT RightUpLeg
  {
    OFFSET -6.06837 -1.11278 -0.933477
    CHANNELS 3 Zrotation Xrotation Yrotation
    JOINT RightUpLegRoll
    {
      OFFSET 0 17.1796 0
      CHANNELS 3 Zrotation Xrotation Yrotation
      JOINT RightLeg
      {
        OFFSET 0 -21.2743 0
        CHANNELS 3 Zrotation Xrotation Yrotation
        JOINT RightLegRoll
        {
          OFFSET 0 21.3439 0
          CHANNELS 3 Zrotation Xrotation Yrotation
          JOINT RightFoot
          {
            OFFSET 0 17.7652 0
            CHANNELS 3 Zrotation Xrotation Yrotation
            JOINT RightToeBase
            {
              OFFSET 0 14.8508 0
              CHANNELS 3 Zrotation Xrotation Yrotation
              End Site
              {
                OFFSET 0.00629469 7.19214 -0.829005
              }
            }
          }
        }
      }
    }
  }
  JOINT LeftUpLeg
  {
    OFFSET 6.06837 -1.11278 -0.933477
    CHANNELS 3 Zrotation Xrotation Yrotation
    JOINT LeftUpLegRoll
    {
      OFFSET 0 17.1797 0
      CHANNELS 3 Zrotation Xrotation Yrotation
      JOINT LeftLeg
      {
        OFFSET 0 21.2742 0
        CHANNELS 3 Zrotation Xrotation Yrotation
        JOINT LeftLegRoll
        {
          OFFSET 0 21.5412 0
          CHANNELS 3 Zrotation Xrotation Yrotation
          JOINT LeftFoot
          {
            OFFSET 0 17.5679 0
            CHANNELS 3 Zrotation Xrotation Yrotation
            JOINT LeftToeBase
            {
              OFFSET 0 14.8508 0
              CHANNELS 3 Zrotation Xrotation Yrotation
              End Site
              {
                OFFSET -0.0282102 7.19214 -0.829005
              }
            }
          }
        }
      }
    }
  }
}
MOTION
Frames: 9
Frame Time: 0.00208333
53.6265 91.6435 4.41639 0.028846 -5.92823 -0.968471 0.116022 -1.82392 -0.0729794 0.239836 0.355263 -0.164243 0.241915 2.00033 -0.168215 -5.66836 31.8996 2.1298 2.67284 -11.7241 0.0586545 66.1262 7.02506 2.88284 111.603 37.1356 -34.4088 4.14838e-007 4.28833e-007 -3.30951e-006 9.40221 71.7623 -9.24185 -2.41249e-006 4.06514e-006 -3 8.02887 -4.95144 0.697675 -70.0617 3.68772 -0.511175 -116.326 43.7093 39.001 -2.17106e-005 -2.65082e-006 7.29715e-006 -25.3266 66.6522 19.2584 1.03742e-005 -1.98977e-006 3.00995 -8.02891 -4.95148 -0.697689 175.767 -2.52925 1.32162 180 7.01523e-015 178.825 178.088 5.27156 179.927 -1.5219e-006 7.90525e-006 0.0374914 -18.4095 67.5539 19.1805 8.13649 25.2327 -3.48773 -175.613 -5.80537 -0.0282068 4.54188e-006 -4.6773e-006 -1.22261 -1.44565 -4.88647 0.072836 -2.32467e-006 -3.52045e-006 -0.0351235 18.5064 67.7136 -19.2886 -8.13649 25.2327 3.48774 
53.6266 91.6416 4.41329 0.0325664 -5.91347 -0.982625 0.114203 -1.82475 -0.072786 0.235263 0.353627 -0.164679 0.237358 1.99869 -0.168565 -5.66718 31.9042 2.12913 2.67552 -11.7857 0.0602394 66.0912 6.97441 2.86282 111.567 37.0822 -34.5184 4.14838e-007 4.28833e-007 -3.30951e-006 9.43555 71.73 -9.25478 -2.41249e-006 4.06514e-006 -3 8.02887 -4.95144 0.697675 -69.9963 3.64161 -0.498667 -116.288 43.62 38.9987 -2.17106e-005 -2.65082e-006 7.29715e-006 -25.2966 66.6472 19.2239 1.03742e-005 -1.98977e-006 3.00995 -8.02891 -4.95148 -0.697689 175.76 -2.5107 1.32553 180 7.01523e-015 178.825 178.085 5.27423 179.927 -1.5219e-006 7.90525e-006 0.0374923 -18.4091 67.5534 19.1799 8.13649 25.2327 -3.48773 -175.616 -5.79191 -0.0309265 4.54188e-006 -4.6773e-006 -1.22262 -1.4528 -4.88914 0.0721687 -2.32467e-006 -3.52045e-006 -0.0351754 18.5057 67.7127 -19.2879 -8.13649 25.2327 3.48774 
53.627 91.6364 4.41521 0.0360661 -5.89898 -0.996473 0.112497 -1.82564 -0.0726032 0.230927 0.351855 -0.165072 0.233038 1.99692 -0.168877 -5.66676 31.9094 2.12883 2.67886 -11.8438 0.0618686 66.057 6.92697 2.84433 111.53 37.0281 -34.6178 4.14838e-007 4.28833e-007 -3.30951e-006 9.46754 71.6965 -9.26649 -2.41249e-006 4.06514e-006 -3 8.02887 -4.95144 0.697675 -69.9342 3.59833 -0.487046 -116.245 43.5317 38.9887 -2.17106e-005 -2.65082e-006 7.29715e-006 -25.2664 66.642 19.1897 1.03742e-005 -1.98977e-006 3.00995 -8.02891 -4.95148 -0.697689 175.754 -2.49255 1.32915 180 7.01523e-015 178.825 178.083 5.27674 179.927 -1.5219e-006 7.90525e-006 0.0374932 -18.4087 67.553 19.1793 8.13649 25.2327 -3.48773 -175.619 -5.77882 -0.0333386 4.54188e-006 -4.6773e-006 -1.22262 -1.45945 -4.89158 0.0715491 -2.32467e-006 -3.52045e-006 -0.035228 18.5051 67.7119 -19.2873 -8.13649 25.2327 3.48774 
53.6192 91.6401 4.41882 0.0391622 -5.88495 -1.00994 0.110956 -1.82654 -0.072428 0.226952 0.350028 -0.165394 0.229077 1.9951 -0.169125 -5.66719 31.9148 2.12884 2.68291 -11.8976 0.0634416 66.0235 6.88317 2.82761 111.49 36.9732 -34.7061 4.14838e-007 4.28833e-007 -3.30951e-006 9.49836 71.6618 -9.27715 -2.41249e-006 4.06514e-006 -3 8.02887 -4.95144 0.697675 -69.8763 3.55861 -0.476509 -116.194 43.4442 38.9716 -2.17106e-005 -2.65082e-006 7.29715e-006 -25.2375 66.6373 19.1571 1.03742e-005 -1.98977e-006 3.00995 -8.02891 -4.95148 -0.697689 175.748 -2.47503 1.33232 180 7.01523e-015 178.825 178.081 5.27905 179.927 -1.5219e-006 7.90525e-006 0.0374942 -18.4083 67.5526 19.1787 8.13649 25.2327 -3.48773 -175.621 -5.76628 -0.0354111 4.54188e-006 -4.6773e-006 -1.22263 -1.46545 -4.89376 0.0709926 -2.32467e-006 -3.52045e-006 -0.0352813 18.5045 67.7111 -19.2867 -8.13649 25.2327 3.48774 
53.6199 91.6432 4.4183 0.0416714 -5.87154 -1.02295 0.109628 -1.82742 -0.0722575 0.223461 0.348225 -0.165615 0.225597 1.9933 -0.169281 -5.66856 31.9201 2.12908 2.68769 -11.9461 0.064858 65.9906 6.84343 2.81293 111.448 36.9172 -34.7824 4.14838e-007 4.28833e-007 -3.30951e-006 9.5282 71.6255 -9.28692 -2.41249e-006 4.06514e-006 -3 8.02887 -4.95144 0.697675 -69.8237 3.52319 -0.467255 -116.134 43.3576 38.9477 -2.17106e-005 -2.65082e-006 7.29715e-006 -25.2118 66.6335 19.1274 1.03742e-005 -1.98977e-006 3.00995 -8.02891 -4.95148 -0.697689 175.743 -2.45838 1.33488 180 7.01523e-015 178.825 178.079 5.28109 179.928 -1.5219e-006 7.90525e-006 0.0374951 -18.408 67.5522 19.1783 8.13649 25.2327 -3.48773 -175.623 -5.7545 -0.037112 4.54188e-006 -4.6773e-006 -1.22263 -1.47063 -4.8956 0.0705143 -2.32467e-006 -3.52045e-006 -0.0353352 18.5041 67.7105 -19.2863 -8.13649 25.2327 3.48774 
53.6208 91.6406 4.41606 0.0434103 -5.85894 -1.03542 0.108564 -1.82822 -0.0720888 0.220576 0.34653 -0.165705 0.222721 1.9916 -0.169318 -5.67096 31.9248 2.12951 2.69325 -11.9886 0.0660171 65.9582 6.80816 2.80054 111.403 36.8599 -34.8461 4.14838e-007 4.28833e-007 -3.30951e-006 9.55725 71.5877 -9.29599 -2.41249e-006 4.06514e-006 -3 8.02887 -4.95144 0.697675 -69.7776 3.49281 -0.459483 -116.06 43.2716 38.9178 -2.17106e-005 -2.65082e-006 7.29715e-006 -25.1906 66.6315 19.102 1.03742e-005 -1.98977e-006 3.00995 -8.02891 -4.95148 -0.697689 175.739 -2.44281 1.33668 180 7.01523e-015 178.825 178.077 5.28279 179.928 -1.5219e-006 7.90525e-006 0.037496 -18.4077 67.5519 19.1778 8.13649 25.2327 -3.48773 -175.625 -5.74366 -0.0384095 4.54188e-006 -4.6773e-006 -1.22263 -1.47482 -4.89706 0.0701294 -2.32467e-006 -3.52045e-006 -0.0353897 18.5038 67.71 -19.286 -8.13649 25.2327 3.48774 
53.6192 91.639 4.4175 0.044195 -5.84732 -1.04728 0.107813 -1.8289 -0.0719189 0.218422 0.345021 -0.165637 0.220572 1.99009 -0.169209 -5.67447 31.9288 2.13004 2.69963 -12.024 0.0668183 65.9261 6.77778 2.79069 111.354 36.801 -34.8963 4.14838e-007 4.28833e-007 -3.30951e-006 9.58571 71.5481 -9.30451 -2.41249e-006 4.06514e-006 -3 8.02887 -4.95144 0.697675 -69.7391 3.4682 -0.45339 -115.972 43.1863 38.8822 -2.17106e-005 -2.65082e-006 7.29715e-006 -25.1758 66.6317 19.0821 1.03742e-005 -1.98977e-006 3.00995 -8.02891 -4.95148 -0.697689 175.736 -2.42857 1.33755 180 7.01523e-015 178.825 178.076 5.28411 179.928 -1.5219e-006 7.90525e-006 0.0374969 -18.4075 67.5516 19.1774 8.13649 25.2327 -3.48773 -175.626 -5.73399 -0.0392717 4.54188e-006 -4.6773e-006 -1.22263 -1.47788 -4.8981 0.0698533 -2.32467e-006 -3.52045e-006 -0.0354447 18.5036 67.7096 -19.2859 -8.13649 25.2327 3.48774 
53.6203 91.6388 4.41482 0.043842 -5.83687 -1.05845 0.107426 -1.82943 -0.0717448 0.217122 0.343781 -0.16538 0.219272 1.98885 -0.168926 -5.67918 31.9317 2.13062 2.70687 -12.0515 0.0671607 65.8944 6.7527 2.78363 111.3 36.7403 -34.9322 4.14838e-007 4.28833e-007 -3.30951e-006 9.61375 71.5066 -9.31266 -2.41249e-006 4.06514e-006 -3 8.02887 -4.95144 0.697675 -69.7091 3.4501 -0.449175 -115.864 43.1015 38.8416 -2.17106e-005 -2.65082e-006 7.29715e-006 -25.169 66.635 19.0692 1.03742e-005 -1.98977e-006 3.00995 -8.02891 -4.95148 -0.697689 175.735 -2.41589 1.33735 180 7.01523e-015 178.825 178.076 5.285 179.928 -1.5219e-006 7.90525e-006 0.0374979 -18.4073 67.5514 19.1771 8.13649 25.2327 -3.48773 -175.627 -5.72566 -0.0396666 4.54188e-006 -4.6773e-006 -1.22263 -1.47962 -4.89864 0.069701 -2.32467e-006 -3.52045e-006 -0.0355002 18.5035 67.7095 -19.2859 -8.13649 25.2327 3.48774 
53.6195 91.6381 4.41573 0.0426227 -5.82751 -1.06898 0.107383 -1.82986 -0.0715898 0.216582 0.342642 -0.16495 0.218728 1.98771 -0.168484 -5.6853 31.9342 2.13146 2.71512 -12.0708 0.0671377 65.8634 6.73374 2.77964 111.242 36.6777 -34.951 4.14838e-007 4.28833e-007 -3.30951e-006 9.63956 71.4628 -9.31884 -2.41249e-006 4.06514e-006 -3 8.02887 -4.95144 0.697675 -69.6878 3.43902 -0.447077 -115.74 43.017 38.7916 -2.17106e-005 -2.65082e-006 7.29715e-006 -25.1675 66.6413 19.0618 1.03742e-005 -1.98977e-006 3.00995 -8.02891 -4.95148 -0.697689 175.735 -2.40473 1.33688 180 7.01523e-015 178.825 178.075 5.28517 179.928 -1.5219e-006 7.90525e-006 0.0374988 -18.4073 67.5514 19.177 8.13649 25.2327 -3.48773 -175.627 -5.7188 -0.0392342 4.54188e-006 -4.6773e-006 -1.22263 -1.47987 -4.89836 0.0696968 -2.32467e-006 -3.52045e-006 -0.0355563 18.5035 67.7094 -19.286 -8.13649 25.2327 3.48774 
